<svg xmlns="http://www.w3.org/2000/svg" version="1.1" xmlns:xlink="http://www.w3.org/1999/xlink" xmlns:svgjs="http://svgjs.dev/svgjs" width="100%" height="100%" viewBox="0 0 1000 600"><rect width="1000" height="600" x="0" y="0" fill="#f8f9f9"/><g><circle r="166.66666666666666" cx="345.8169809977213" cy="368.0392027912396" fill="#0dcaf0" transform="matrix(0.6977380349950295,0,0,0.6977380349950296,0,43.2050296132996)"/><path d="M320.62191124614384 436.92333281609234L320.62191124614384 443.03921284467805L273.86030222375194 443.03921284467805L273.86030222375194 436.92333281609234Q281.43931144577914 433.5581356711768 289.0183206678064 431.8609058067846L289.0183206678064 431.8609058067846L342.3347484768164 293.03920793305053L348.45062850540205 293.03920793305053L401.7377937305433 431.8609058067846Q405.9516058076549 432.70952073898076 410.0776301331601 433.7629737582586Q414.1743918747964 434.81642677753655 417.77368969066265 436.92333281609234L417.77368969066265 436.92333281609234L417.77368969066265 443.03921284467805L363.81348503653834 443.03921284467805L363.81348503653834 436.92333281609234Q368.02729711365 435.25536553556907 372.4752098617123 433.96781184534046Q376.8938600259058 432.70952073898076 381.1076721030174 431.8609058067846L381.1076721030174 431.8609058067846L366.7690060072902 393.3220828515343L316.40809916903214 393.3220828515343L302.50837183133746 431.8609058067846Q311.3749347435932 433.1484594970132 320.62191124614384 436.92333281609234L320.62191124614384 436.92333281609234ZM336.862645293345 338.1035870910502L320.62191124614384 382.3486139007226L363.1989707752929 382.3486139007226L346.54856055392804 337.6939109168866L342.5395865638982 319.5803715020802L342.12991038973456 319.5803715020802L336.862645293345 338.1035870910502Z " fill="#424949" transform="matrix(0.6977380349950295,0,0,0.6977380349950296,0,43.2050296132996)"/><path d="M595.8169977714119 311.6006798065544L595.8169977714119 306.01380743123843L648.5581422522657 306.01380743123843L648.5581422522657 311.6006798065544Q643.9336019607363 313.3382238467245 639.3090616692068 314.56787039822945Q634.6845213776772 315.8242483965062 630.0599810861477 316.41234022548684L630.0599810861477 316.41234022548684L630.0599810861477 430.7427380686759L674.3272569403262 430.7427380686759L685.6881218183611 399.73425981333355L690.6869023646964 399.73425981333355Q691.274994193677 403.7974397226543 691.7561602355703 409.09026618347997Q692.2373262774636 414.38309264430563 692.5313721919539 420.0501593599372Q692.8254181064442 425.7172260755687 692.8254181064442 431.11697832348176Q692.8254181064442 436.5167305713948 692.6115665322694 440.7402991613466L692.6115665322694 440.7402991613466L595.8169977714119 440.7402991613466L595.8169977714119 435.15342678603065Q600.4415380629414 433.04164249105474 604.2908663980874 432.0793104072683Q608.1401947332333 431.11697832348176 611.5885513668015 430.52888649450114L611.5885513668015 430.52888649450114L611.5885513668015 316.41234022548684Q607.1778626494468 315.63712826910336 603.1146827401261 314.38075027082647Q599.0782342775772 313.1243722725497 595.8169977714119 311.6006798065544L595.8169977714119 311.6006798065544ZM746.5021632243127 435.9286387424142L746.5021632243127 440.7402991613466L703.7853112829014 440.7402991613466L703.7853112829014 435.9286387424142Q706.6723075342609 434.3782148296471 709.7464239130232 433.33568840554506Q712.8205402917856 432.2664305346712 716.4827484995287 431.30409845088474L716.4827484995287 431.30409845088474L716.4827484995287 355.6808355333299L703.7853112829014 354.1304116205628L703.7853112829014 349.1316310742274Q709.3721836582174 346.8059952050768 715.9213881173199 345.0951826116786Q722.4438611296505 343.3576385715085 728.993065588753 342.2081863603191L728.993065588753 342.2081863603191L733.8047260076855 342.2081863603191L733.8047260076855 431.30409845088474Q737.6540543428314 432.2664305346712 740.7281707215938 433.33568840554506Q743.829018547128 434.3782148296471 746.5021632243127 435.9286387424142L746.5021632243127 435.9286387424142ZM712.8205402917856 311.7877999339574L712.8205402917856 311.7877999339574Q712.8205402917856 306.60189926021906 716.1887025850383 303.5010514346848Q719.5568648782911 300.42693505592246 725.143737253607 300.42693505592246L725.143737253607 300.42693505592246Q730.730609628923 300.42693505592246 733.9918461350884 303.5010514346848Q737.2798140880255 306.60189926021906 737.2798140880255 311.7877999339574L737.2798140880255 311.7877999339574Q737.2798140880255 316.97370060769566 733.9918461350884 319.9676226461425Q730.730609628923 322.96154468458934 725.143737253607 322.96154468458934L725.143737253607 322.96154468458934Q719.5568648782911 322.96154468458934 716.1887025850383 319.9676226461425Q712.8205402917856 316.97370060769566 712.8205402917856 311.7877999339574ZM768.6358011514019 435.15342678603065L768.6358011514019 309.48889551157856L754.0136997672016 307.9384715988114L754.0136997672016 302.93969105247606Q759.9748123973236 300.42693505592246 767.406154599897 298.9032425899272Q774.8107653556985 297.35281867716003 781.1461182406263 296.0162463385677L781.1461182406263 296.0162463385677L785.9577786595587 296.0162463385677L785.9577786595587 363.5666123310247L786.3587503611365 363.5666123310247Q789.6199868673017 353.7561713657569 797.425569324681 347.98217886303803Q805.2044203352884 342.2081863603191 814.6406210457503 342.2081863603191L814.6406210457503 342.2081863603191Q832.1497186813101 342.2081863603191 841.5057250514565 354.1304116205628Q850.834999974831 366.0526368808065 850.834999974831 390.8861509318522L850.834999974831 390.8861509318522Q850.834999974831 416.3077568118786 838.0306369711165 429.3794342833117Q825.2262739674018 442.4778432015167 801.1679718727396 442.4778432015167L801.1679718727396 442.4778432015167Q796.3563114538072 442.4778432015167 791.5446510348747 441.80955703222054Q786.7329906159423 441.1145394161525 782.3223018985875 440.152207332366Q777.884881734461 439.18987524857954 774.3295993138054 437.85330290998724Q770.7743168931497 436.5167305713948 768.6358011514019 435.15342678603065L768.6358011514019 435.15342678603065ZM809.4547203720122 354.1304116205628L809.4547203720122 354.1304116205628Q800.205639788953 354.1304116205628 794.4316472862342 360.38557016517495Q788.6576547835152 366.64072870978714 785.9577786595587 376.264049547652L785.9577786595587 376.264049547652L785.9577786595587 429.9675261122924Q789.4328667398988 431.89219027986536 794.4316472862342 432.93471670396735Q799.4304278325695 434.00397457484127 805.0173002078855 434.00397457484127L805.0173002078855 434.00397457484127Q817.7147374245128 434.00397457484127 825.0391538399988 422.93715561129665Q832.3635702554849 411.870336647752 832.3635702554849 390.8861509318522L832.3635702554849 390.8861509318522Q832.3635702554849 383.37461438896327 831.107192257208 376.63828980245785Q829.8508142589312 369.90196521595243 827.0707437946592 364.9031846696171Q824.2639418836152 359.9044041232817 819.9334475065762 357.0174078719223Q815.6029531295369 354.1304116205628 809.4547203720122 354.1304116205628ZM931.2699233113183 358.94207203949526L905.6879287506608 358.94207203949526Q903.5761444556849 360.09152425068464 900.3951022898352 363.6468066713403Q897.2140601239853 367.22882053876776 894.7013041274317 374.1522652526761L894.7013041274317 374.1522652526761L894.7013041274317 431.30409845088474Q898.5506324625777 431.7050701524624 902.3999607977237 432.74759657656443Q906.2492891328696 433.8168544474383 910.0986174680156 435.9286387424142L910.0986174680156 435.9286387424142L910.0986174680156 440.7402991613466L864.6818894026478 440.7402991613466L864.6818894026478 435.9286387424142Q868.1569774829878 434.00397457484127 871.2310938617502 433.04164249105474Q874.3052102405126 432.0793104072683 877.379326619275 431.30409845088474L877.379326619275 431.30409845088474L877.379326619275 355.6808355333299L864.6818894026478 354.1304116205628L864.6818894026478 349.1316310742274Q870.8568536069444 346.4317549502709 877.379326619275 344.80113669718827Q883.9285310783775 343.1705184441056 889.8896437084993 342.2081863603191L889.8896437084993 342.2081863603191L894.7013041274317 342.2081863603191L894.7013041274317 362.60428024723825L895.4765160838153 362.60428024723825Q897.2140601239853 358.7549519120923 900.3951022898352 354.90562357694637Q903.5761444556849 351.0562952418004 907.6927872585494 347.98217886303803Q911.8361615081856 344.8813310375038 916.7547477142055 343.2507127844211Q921.6466024734534 341.62009453133845 926.8592345939635 342.2081863603191L926.8592345939635 342.2081863603191Q928.1958069325559 344.6942109101009 929.2650648034298 347.6881329485477Q930.3075912275317 350.6553235402227 931.2699233113183 353.94329149315985L931.2699233113183 353.94329149315985L931.2699233113183 358.94207203949526ZM1015.7680265571262 424.1935336095734L1018.4679026810827 427.26764998833585Q1016.9174787683157 430.52888649450114 1013.6562422621504 433.41588274586064Q1010.395005755985 436.3028789972201 1006.1447057192614 438.44139473896786Q1001.9211371293095 440.55317903394376 996.9223565829742 441.80955703222054Q991.896844589867 443.0392035837255 986.7109439161286 443.0392035837255L986.7109439161286 443.0392035837255Q975.3500790380938 443.0392035837255 966.6890902840155 439.48392116306985Q958.028101529937 435.9286387424142 952.2541090272182 429.29923994299617Q946.4801165244992 422.64310969680633 943.5129259328241 413.42076056051917Q940.5190038943773 404.17167997746014 940.5190038943773 392.6236949720223L940.5190038943773 392.6236949720223Q940.5190038943773 367.9773010483795 951.8798687724122 355.0927437043493Q963.2407336504472 342.2081863603191 984.0110677921722 342.2081863603191L984.0110677921722 342.2081863603191Q990.7473923786777 342.2081863603191 997.29659683778 344.02592474080467Q1003.8458012968825 345.84366312129026 1008.9515076303053 350.09396315801393Q1014.0304825169562 354.31753174796575 1017.2115246828059 361.3479022489615Q1020.3925668486557 368.3782727499572 1020.3925668486557 378.7768055442056L1020.3925668486557 378.7768055442056Q1020.3925668486557 382.03804205037096 1020.0985209341654 385.40620434362364Q1019.804475019675 388.7743666368763 1019.0559945100633 392.6236949720223L1019.0559945100633 392.6236949720223L958.9904336137234 392.6236949720223Q958.9904336137234 400.69659189712 961.0220235683839 407.72696239811575Q963.0268820762724 414.75733289911153 967.0900619855931 419.9432335728498Q971.126510448142 425.15586569335994 977.2747432056667 428.1230562850349Q983.4497074099634 431.11697832348176 991.709724462464 431.11697832348176L991.709724462464 431.11697832348176Q998.4460490489695 431.11697832348176 1005.3694937628778 429.19231415590883Q1012.319669923558 427.26764998833585 1015.7680265571262 424.1935336095734L1015.7680265571262 424.1935336095734ZM983.2358558357887 350.6553235402227L983.2358558357887 350.6553235402227Q972.2759626593313 350.6553235402227 966.5019701566125 358.08666574279613Q960.7279776538935 365.49127649859776 959.5785254427041 384.14982634534687L959.5785254427041 384.14982634534687L1001.9211371293095 384.14982634534687Q1002.1082572567125 382.4122823051768 1002.2151830437999 380.78166405209413Q1002.2953773841155 379.15104579901146 1002.2953773841155 377.60062188624437L1002.2953773841155 377.60062188624437Q1002.2953773841155 365.3041563711948 997.670837092586 357.97973995570874Q993.0730282478282 350.6553235402227 983.2358558357887 350.6553235402227ZM1102.0036738431043 358.94207203949526L1076.3949478356749 358.94207203949526Q1074.2831635406992 360.09152425068464 1071.1021213748493 363.6468066713403Q1067.9210792089993 367.22882053876776 1065.4350546592177 374.1522652526761L1065.4350546592177 374.1522652526761L1065.4350546592177 431.30409845088474Q1069.2843829943638 431.7050701524624 1073.1337113295097 432.74759657656443Q1076.9830396646555 433.8168544474383 1080.8323679998016 435.9286387424142L1080.8323679998016 435.9286387424142L1080.8323679998016 440.7402991613466L1035.4156399344338 440.7402991613466L1035.4156399344338 435.9286387424142Q1038.863996568002 434.00397457484127 1041.9381129467642 433.04164249105474Q1045.0389607722987 432.0793104072683 1048.113077151061 431.30409845088474L1048.113077151061 431.30409845088474L1048.113077151061 355.6808355333299L1035.4156399344338 354.1304116205628L1035.4156399344338 349.1316310742274Q1041.5638726919585 346.4317549502709 1048.113077151061 344.80113669718827Q1054.6622816101635 343.1705184441056 1060.6233942402853 342.2081863603191L1060.6233942402853 342.2081863603191L1065.4350546592177 342.2081863603191L1065.4350546592177 362.60428024723825L1066.2102666156013 362.60428024723825Q1067.9210792089993 358.7549519120923 1071.1021213748493 354.90562357694637Q1074.2831635406992 351.0562952418004 1078.4265377903353 347.98217886303803Q1082.5699120399718 344.8813310375038 1087.4617667992195 343.2507127844211Q1092.3803530052394 341.62009453133845 1097.5662536789778 342.2081863603191L1097.5662536789778 342.2081863603191Q1098.929557464342 344.6942109101009 1099.9720838884439 347.6881329485477Q1101.0413417593177 350.6553235402227 1102.0036738431043 353.94329149315985L1102.0036738431043 353.94329149315985L1102.0036738431043 358.94207203949526ZM1153.9696063675747 435.9286387424142L1153.9696063675747 440.7402991613466L1111.2260229793915 440.7402991613466L1111.2260229793915 435.9286387424142Q1114.113019230751 434.3782148296471 1117.2138670562852 433.33568840554506Q1120.2879834350474 432.2664305346712 1123.9501916427905 431.30409845088474L1123.9501916427905 431.30409845088474L1123.9501916427905 355.6808355333299L1111.2260229793915 354.1304116205628L1111.2260229793915 349.1316310742274Q1116.8128953547075 346.8059952050768 1123.36209981381 345.0951826116786Q1129.9113042729123 343.3576385715085 1136.460508732015 342.2081863603191L1136.460508732015 342.2081863603191L1141.2721691509473 342.2081863603191L1141.2721691509473 431.30409845088474Q1145.1214974860934 432.2664305346712 1148.1956138648557 433.33568840554506Q1151.2697302436181 434.3782148296471 1153.9696063675747 435.9286387424142L1153.9696063675747 435.9286387424142ZM1119.138531223858 326.59702144556053L1141.6464094057533 293.1292500872082Q1143.1968333185205 292.9153985130335 1145.682857868302 293.2094444275238Q1148.1956138648557 293.5034903420141 1150.8954899888122 294.09158217099474Q1153.5686346659968 294.6529425532035 1155.8942705351476 295.53508029667444Q1158.1931749575265 296.39048659337357 1159.3426271687158 297.35281867716003L1159.3426271687158 297.35281867716003L1159.3426271687158 301.0150268849031L1123.36209981381 330.0721095259006L1119.138531223858 326.59702144556053ZM1240.1785222067806 415.5325448554951L1240.1785222067806 415.5325448554951Q1240.1785222067806 419.75611344544683 1240.3923737809555 422.83022982420925Q1240.579493908358 425.9310776497435 1240.7666140357614 429.3794342833117L1240.7666140357614 429.3794342833117L1254.0521430813692 431.30409845088474L1254.0521430813692 435.34054691343357Q1249.2404826624365 437.85330290998724 1243.3595643726303 439.77796707756016Q1237.505377529596 441.70263124513315 1232.105625281683 442.66496332891967L1232.105625281683 442.66496332891967L1227.2939648627503 442.66496332891967Q1225.3693006951776 438.2275431647931 1224.9950604403716 432.93471670396735Q1224.5940887387937 427.6418902431417 1224.4069686113908 421.30653735821403L1224.4069686113908 421.30653735821403L1223.4446365276044 421.30653735821403Q1222.669424571221 425.15586569335994 1220.4507144891577 429.0853883688214Q1218.2587358538663 433.04164249105474 1214.6767219864387 436.11575886981717Q1211.121439565783 439.18987524857954 1206.3097791468508 441.1145394161525Q1201.4981187279182 443.0392035837255 1195.3498859703936 443.0392035837255L1195.3498859703936 443.0392035837255Q1183.6147808375526 443.0392035837255 1176.1834386349792 435.9286387424142Q1168.7788278791777 428.818073901103 1168.7788278791777 417.2700888956651L1168.7788278791777 417.2700888956651Q1168.7788278791777 408.39524856741195 1172.3341102998334 402.7281818517804Q1175.916124167261 397.0611151361489 1182.8395688811693 393.77314718321173Q1189.7630135950776 390.5119106770464 1199.974426261923 389.06841255136663Q1210.1591074819967 387.6249144256869 1223.6317566550074 386.8497024693034L1223.6317566550074 386.8497024693034Q1224.4069686113908 378.56295397003083 1224.1129226969006 371.9335551706128Q1223.8188767824104 365.3041563711948 1222.001138401925 360.5726902925779Q1220.183400021439 355.86795566073283 1216.6013861540118 353.2750053238637Q1213.0461037333562 350.6553235402227 1207.2721112306372 350.6553235402227L1207.2721112306372 350.6553235402227Q1204.5722351066806 350.6553235402227 1201.204072813428 350.949369454713Q1197.8359105201753 351.2434153692033 1194.57467401401 352.5799877077957L1194.57467401401 352.5799877077957L1185.5394450051258 375.6759577186714L1180.5139330120185 375.6759577186714Q1178.5892688444455 369.90196521595243 1177.1457707187658 363.7537324584277Q1175.702272593086 357.6054997009029 1175.32803233828 351.61765562400916L1175.32803233828 351.61765562400916Q1182.6524487537663 347.2069669066545 1191.580751975563 344.6942109101009Q1200.5357866441318 342.2081863603191 1211.522411267361 342.2081863603191L1211.522411267361 342.2081863603191Q1221.3328522326287 342.2081863603191 1227.187039075663 344.9882568245912Q1233.0679573654693 347.76832728886325 1236.1420737442318 352.20574745298984Q1239.2161901229942 356.64316761711643 1240.1785222067806 362.0161884182576Q1241.140854290567 367.4159406661707 1241.140854290567 372.78896146731194L1241.140854290567 372.78896146731194Q1241.140854290567 384.33694647274973 1240.6596882486738 395.0295251814885Q1240.1785222067806 405.7221038902273 1240.1785222067806 415.5325448554951ZM1203.0485426406854 431.11697832348176L1203.0485426406854 431.11697832348176Q1207.8602030596176 431.11697832348176 1211.522411267361 429.19231415590883Q1215.1578880283319 427.26764998833585 1217.6706440248854 424.56777386437926Q1220.183400021439 421.86789774042273 1221.7070924874342 419.0878272761507Q1223.2575164002014 416.3077568118786 1223.8188767824104 414.38309264430563L1223.8188767824104 414.38309264430563L1223.8188767824104 394.1741188847894Q1212.6718634785502 394.1741188847894 1205.534567190467 395.3235710959788Q1198.424002349156 396.47302330716826 1194.387553886607 398.9857793037218Q1190.351105424058 401.4718038535036 1188.800681511291 405.240937848334Q1187.250257598524 408.9833403963926 1187.250257598524 413.795000815325L1187.250257598524 413.795000815325Q1187.250257598524 422.0817493145975 1191.5005576352478 426.59936381903964Q1195.7241262251994 431.11697832348176 1203.0485426406854 431.11697832348176Z " fill="#0dcaf0" transform="matrix(0.6977380349950295,0,0,0.6977380349950296,0,43.2050296132996)"/></g></svg>