<svg xmlns="http://www.w3.org/2000/svg" version="1.1" xmlns:xlink="http://www.w3.org/1999/xlink" xmlns:svgjs="http://svgjs.dev/svgjs" width="100%" height="100%" viewBox="0 0 1000 600"><rect width="1000" height="600" x="0" y="0" fill="#f8f9f9"/><g><circle r="166.66666666666666" cx="350.5357309977213" cy="372.75790639650097" fill="#45b39d" transform="matrix(0.6798318019228512,0,0,0.6798318019228512,0,46.58731985393065)"/><path d="M322.358207889788 447.7579109146275L283.3587877208198 447.7579109146275L283.3587877208198 440.86202532754396Q289.61723850573594 440.86202532754396 292.94928406251995 437.52997977075984Q296.2813296193041 434.1979342139758 298.48337711770046 428.3451237577117Q300.65645030690746 422.52128761063693 303.5828555350395 414.78514705706004L303.5828555350395 414.78514705706004L346.55175606295916 297.75791224096605L351.5643115527299 297.75791224096605L398.097052110949 416.4656569900468Q399.7485877347463 420.8407776776502 401.83473799638506 427.7366632647337Q403.92088825802375 434.6035745426278 403.51524792937175 439.4133098680726L403.51524792937175 439.4133098680726Q407.0501136504818 439.2104897037466 410.61395368078126 439.0076695394206Q414.14881940189133 438.7758750659052 417.7126594321908 438.5730549015792L417.7126594321908 438.5730549015792L417.7126594321908 447.7579109146275L369.9340235788264 447.7579109146275L369.9340235788264 440.86202532754396Q377.84400998753983 440.65920516321796 380.36477488701996 437.32715960643384Q382.8565654773106 433.9951140496498 382.2481049843327 429.38819888853095Q381.6106701821653 424.81025803660157 380.16195472269396 421.0435978419762L380.16195472269396 421.0435978419762L372.86042880695845 401.4569648299238L318.6205220043519 402.70286012506915L311.3189960886164 425.01307820092757Q309.84130631995566 430.02563369069844 308.71130826156804 432.95203891883045Q307.55233589399097 435.8784441469626 306.10362043451966 439.4133098680726L306.10362043451966 439.4133098680726Q310.2759209577971 439.2104897037466 314.3323242443168 439.0076695394206Q318.3887275308365 438.7758750659052 322.358207889788 438.5730549015792L322.358207889788 438.5730549015792L322.358207889788 447.7579109146275ZM336.555619392607 351.7949988792467L321.74974739681 393.7208242763469L369.9340235788264 393.7208242763469L355.1281515830294 353.8811491408853Q352.8102068478753 347.4198781916432 350.4343134943423 341.0455301699694Q348.0294458316199 334.7001564574849 345.7404754056552 328.2099111990534L345.7404754056552 328.2099111990534L345.3058607678138 328.2099111990534Q343.2197105061751 334.06272165531755 341.0466373169681 339.9155321115817Q338.84458981857165 345.73936825865644 336.555619392607 351.7949988792467L336.555619392607 351.7949988792467Z " fill="#a569bd" transform="matrix(0.6798318019228512,0,0,0.6798318019228512,0,46.58731985393065)"/><path d="M695.7828314219192 444.690581806512L600.5357208869228 444.690581806512L600.5357208869228 438.34255259695465Q607.8439561954048 437.96913911403954 610.5111953590842 434.9818312507185Q613.2051069144006 432.0211957790342 613.4985032224054 426.7400622349487Q613.7918995304101 421.4589286908632 613.7918995304101 414.73748599839075L613.7918995304101 414.73748599839075L613.7918995304101 331.75967561632024Q613.7918995304101 327.91885122062166 613.9786062718676 324.3714231329279Q614.1653130133253 320.82399504523414 614.3520197547829 317.9433767484602L614.3520197547829 317.9433767484602Q610.9112812336363 318.13008348991775 607.4438703208529 318.3167902313753Q604.0031317997062 318.53016936446966 600.5357208869228 318.71687610592727L600.5357208869228 318.71687610592727L600.5357208869228 310.26172795706316L643.7449953385315 310.26172795706316L643.7449953385315 316.6097571666204Q636.6501391631439 316.79646390807795 633.8495380412803 319.86378894630946Q631.0756093110535 322.93111398454096 630.7822130030488 328.13223035371607Q630.4888166950441 333.3066743312544 630.4888166950441 340.2148237651844L630.4888166950441 340.2148237651844L630.4888166950441 422.60584153124535Q630.4888166950441 427.78028550878366 630.4087995201337 431.43440316302474Q630.3021099535865 435.0885208172657 629.9286964706714 437.5957256311244L629.9286964706714 437.5957256311244L665.829735613798 437.00893301511496Q677.9390014169031 436.8222262736574 684.1803410599132 429.3272842237178Q690.4216807029234 421.83234217377833 690.4216807029234 404.9487182676868L690.4216807029234 404.9487182676868L696.9297442623015 404.9487182676868L695.7828314219192 444.690581806512ZM709.4124235483217 444.690581806512L709.4124235483217 438.9293452129642Q715.387039274964 438.9293452129642 717.6808649557283 435.9420373496431Q719.9746906364927 432.9814018779588 720.3747765110446 427.7002683338733Q720.7481899939597 422.4191347897878 720.7481899939597 415.51098535585777L720.7481899939597 415.51098535585777L720.7481899939597 371.7149182882398Q720.7481899939597 368.6475932500083 720.9348967354174 365.84699212814473Q721.1482758685117 363.0730633979181 721.5216893514269 359.23223900221944L721.5216893514269 359.23223900221944Q718.0542784386435 359.4189457436771 714.6935570924072 359.60565248513467Q711.332835746171 359.819031618229 707.8920972250244 360.0057383596866L707.8920972250244 360.0057383596866L707.8920972250244 351.9240036937375Q716.3472453738885 351.9240036937375 720.9348967354174 351.1771767279073Q725.5492204885829 350.40367737044016 727.9497357358945 349.25676453005804Q730.3502509832061 348.083179298039 731.7105429566827 346.7495597161992L731.7105429566827 346.7495597161992L737.2584004171362 346.7495597161992L737.2584004171362 424.33954698763705Q737.2584004171362 428.1803713833357 737.1783832422258 431.1410068550199Q737.0716936756786 434.128314718341 736.5115734513059 437.3823464980301L736.5115734513059 437.3823464980301Q739.5788984895373 437.1956397565725 742.5395339612217 437.11562258166214Q745.5268418245427 437.00893301511496 748.5941668627742 436.8222262736574L748.5941668627742 436.8222262736574L748.5941668627742 444.690581806512L709.4124235483217 444.690581806512ZM727.8697185609841 327.7321444791641L727.8697185609841 327.7321444791641Q723.8155150321912 327.7321444791641 720.7481899939597 324.4781126994751Q717.6808649557283 321.19740852814925 717.6808649557283 316.39637803352605L717.6808649557283 316.39637803352605Q717.6808649557283 311.59534753890284 720.8548795605069 308.23462619266667Q724.0288941652856 304.87390484643043 728.0564253024417 304.87390484643043L728.0564253024417 304.87390484643043Q732.457369922513 304.87390484643043 735.4446777858341 308.23462619266667Q738.4319856491551 311.59534753890284 738.4319856491551 316.39637803352605L738.4319856491551 316.39637803352605Q738.4319856491551 321.19740852814925 735.2579710443764 324.4781126994751Q732.0839564395978 327.7321444791641 727.8697185609841 327.7321444791641ZM772.225905852975 444.690581806512L772.5993193358901 324.66481944093266Q772.5993193358901 321.59749440270116 772.7060089024372 318.7968932808376Q772.7860260773476 316.02296455061094 773.1861119518995 312.1821401549124L773.1861119518995 312.1821401549124Q769.7187010391161 312.36884689637 766.3579796928799 312.55555363782753Q762.9972583466437 312.7689327709219 759.556519825497 312.95563951237943L759.556519825497 312.95563951237943L759.556519825497 304.87390484643043Q767.9849955827244 304.87390484643043 772.7060089024372 304.12707788060015Q777.4003498305132 303.3535785231331 779.8008650778248 302.2066656827509Q782.2013803251364 301.03308045073186 783.561672298613 299.6994608688921L783.561672298613 299.6994608688921L789.1095297590664 299.6994608688921L789.1095297590664 356.9384133214551Q794.4973528696991 351.5505902108224 801.8856053530914 348.5632823475013Q809.2738578364837 345.6026468758171 818.1290918598999 345.6026468758171L818.1290918598999 345.6026468758171Q830.3983920128258 345.6026468758171 840.2938493100768 351.5505902108224Q850.1893066073279 357.49853354582785 855.9505432008757 368.46088650855074Q861.7117797944235 379.39656707963684 861.7117797944235 394.3864511795158L861.7117797944235 394.3864511795158Q861.7117797944235 410.7099548612347 854.6169236190359 422.71253109779263Q847.4953950520115 434.7151073343505 836.1596286063735 441.2231708937286Q824.8505345523723 447.7579068447435 811.7810626503425 447.7579068447435L811.7810626503425 447.7579068447435Q805.2463266993276 447.7579068447435 797.4846607330202 445.35739159743184Q789.696322375076 442.9568763501203 783.561672298613 436.0487269161903L783.561672298613 436.0487269161903L778.9473485454473 444.690581806512L772.225905852975 444.690581806512ZM789.1095297590664 365.9536816946919L789.1095297590664 414.5507792569332Q789.1095297590664 424.7129604705523 792.3902339303922 430.1808007560953Q795.6442657100813 435.67531343327516 800.8453820792564 437.782432372582Q806.0198260567947 439.8895513118888 811.7810626503425 439.8895513118888L811.7810626503425 439.8895513118888Q821.0097101566737 439.8895513118888 827.7311528491462 434.7151073343505Q834.4525955416186 429.51399096517537 838.18673037077 420.39203302539136Q841.9208651999213 411.27007508560735 841.9208651999213 399.187481674139L841.9208651999213 399.187481674139Q841.9208651999213 386.1180097721093 838.6668334202324 376.22255247485816Q835.4128016405433 366.327095177607 828.8780656895284 360.6725481506064Q822.3433297385135 355.0180011236058 812.367855266352 355.0180011236058L812.367855266352 355.0180011236058Q806.0198260567947 355.0180011236058 799.7784864137845 357.97863659529014Q793.5371467707745 360.96594445861115 789.1095297590664 365.9536816946919L789.1095297590664 365.9536816946919ZM878.2219902175999 444.690581806512L878.2219902175999 438.9293452129642Q884.1699335526054 438.9293452129642 886.4904316250064 435.9420373496431Q888.7842573057709 432.9814018779588 889.1843431803228 427.7002683338733Q889.5577566632379 422.4191347897878 889.5577566632379 415.51098535585777L889.5577566632379 415.51098535585777L889.5577566632379 371.7149182882398Q889.5577566632379 368.6475932500083 889.6644462297851 365.5802682117768Q889.7444634046955 362.4862707819085 890.3312560207049 359.23223900221944L890.3312560207049 359.23223900221944Q886.8638451079216 359.4189457436771 883.5031237616854 359.5256353102243Q880.1424024154492 359.60565248513467 876.7016638943026 359.819031618229L876.7016638943026 359.819031618229L876.7016638943026 351.9240036937375L882.6496072293079 351.9240036937375Q890.8913762450776 351.9240036937375 894.0653908498564 350.296987803893Q897.2394054546351 348.66997191404846 899.3465243939419 346.7495597161992L899.3465243939419 346.7495597161992L904.9210542460321 346.7495597161992Q905.2944677289473 349.8168847544307 905.5078468620417 354.3245189410492Q905.6945536034992 358.85882551930433 905.8812603449568 365.76697495323435L905.8812603449568 365.76697495323435Q908.7618786417306 360.96594445861115 913.7496158778114 356.3516207054456Q918.7373531138921 351.73729695227996 924.9786927569022 348.66997191404846Q931.2200323999124 345.6026468758171 938.1548542254792 345.6026468758171L938.1548542254792 345.6026468758171Q943.5160049444752 345.6026468758171 947.5435360816311 348.4832651725909Q951.5977396104241 351.36388346936485 951.5977396104241 357.6852402872854L951.5977396104241 357.6852402872854Q951.5977396104241 359.23223900221944 950.6375335114994 361.44604750807355Q949.6773274125749 363.65985601392754 947.5435360816311 365.28687190377207Q945.4364171423243 366.9138877936166 941.9956786211777 366.9138877936166L941.9956786211777 366.9138877936166Q937.7547683509273 366.72718105215904 935.2742359287053 363.55316644738036Q932.7670311148465 360.3791518426017 933.3538237308561 356.16491396398806L933.3538237308561 356.16491396398806Q928.5527932362328 355.9782072225305 923.458366433605 358.64544638621Q918.363939630977 361.3393579415264 913.9363226192689 366.0603712612391Q909.5353779991977 370.7547121893151 906.0679670864143 377.10274139887247L906.0679670864143 377.10274139887247L906.2546738278719 424.33954698763705Q906.2546738278719 428.1803713833357 906.1746566529615 431.1410068550199Q906.0679670864143 434.128314718341 905.5078468620417 437.3823464980301L905.5078468620417 437.3823464980301Q908.5751719002731 437.1956397565725 911.5358073719574 437.11562258166214Q914.5231152352784 437.00893301511496 917.5904402735099 436.8222262736574L917.5904402735099 436.8222262736574L917.5904402735099 444.690581806512L878.2219902175999 444.690581806512ZM1006.5161939905857 447.7579068447435L1006.5161939905857 447.7579068447435Q993.2600153470985 447.7579068447435 982.5910586923802 441.5165672017333Q971.9487744292991 435.27522755872326 965.7874519611993 423.85944393817476Q959.6528018847363 412.4169879259896 959.6528018847363 396.86698360173784L959.6528018847363 396.86698360173784Q959.6528018847363 383.4240982167929 965.7074347862889 371.7149182882398Q971.7620676878414 360.0057383596866 982.6977482589275 352.8041926177518Q993.6334288300137 345.6026468758171 1008.0365203138832 345.6026468758171L1008.0365203138832 345.6026468758171Q1016.1182549798322 345.6026468758171 1023.1330939803094 348.1898688645862Q1030.1212605891496 350.7770908533554 1035.5090836997824 356.0582243974409Q1040.8969068104152 361.3393579415264 1043.9642318486467 369.31440304092814Q1047.0315568868782 377.28944814033 1047.0315568868782 388.03842196995856L1047.0315568868782 388.03842196995856L979.4437164792386 389.1853348103407Q979.4437164792386 403.77513303566786 982.5910586923802 414.81750317330113Q985.765073297159 425.8598733109344 992.8866018641834 431.914506212487Q999.981458039571 437.96913911403954 1011.1305177437515 437.96913911403954L1011.1305177437515 437.96913911403954Q1017.0784610787568 437.96913911403954 1023.3198007217669 435.8620201747327Q1029.5611403647772 433.7549012354259 1034.922291083773 430.10078358118494Q1040.3101141944057 426.446665926944 1043.5641459740946 422.0190489152359L1043.5641459740946 422.0190489152359L1048.17846972726 425.8598733109344Q1043.0040257497221 433.94160797688346 1035.6957904412402 438.74263847150667Q1028.4142275243948 443.54366896612976 1020.7325787329978 445.6507879054367Q1013.0509299416007 447.7579068447435 1006.5161939905857 447.7579068447435ZM980.0038367036112 381.13027253602854L980.0038367036112 381.13027253602854L1028.9743477487677 381.13027253602854Q1028.9743477487677 374.2221231020985 1026.973918376008 367.767404325994Q1024.9468166116117 361.3393579415264 1020.3324928584458 357.205137237823Q1015.7181691052803 353.09758892575655 1008.2498994469776 353.09758892575655L1008.2498994469776 353.09758892575655Q997.1008397427971 353.09758892575655 989.7125872594048 359.71234205168184Q982.3243347760123 366.327095177607 980.0038367036112 381.13027253602854ZM1064.128559926064 444.690581806512L1064.128559926064 438.9293452129642Q1070.0765032610693 438.9293452129642 1072.3703289418336 435.9420373496431Q1074.6908270142349 432.9814018779588 1075.06424049715 427.7002683338733Q1075.464326371702 422.4191347897878 1075.464326371702 415.51098535585777L1075.464326371702 415.51098535585777L1075.464326371702 371.7149182882398Q1075.464326371702 368.6475932500083 1075.5443435466123 365.5802682117768Q1075.6510331131594 362.4862707819085 1076.2111533375323 359.23223900221944L1076.2111533375323 359.23223900221944Q1072.7704148163857 359.4189457436771 1069.4096934701493 359.5256353102243Q1066.0489721239132 359.60565248513467 1062.5815612111298 359.819031618229L1062.5815612111298 359.819031618229L1062.5815612111298 351.9240036937375L1068.5295045461353 351.9240036937375Q1076.7979459535418 351.9240036937375 1079.9719605583205 350.296987803893Q1083.1459751630991 348.66997191404846 1085.253094102406 346.7495597161992L1085.253094102406 346.7495597161992L1090.8276239544962 346.7495597161992Q1091.2010374374113 349.8168847544307 1091.3877441788688 354.3245189410492Q1091.5744509203264 358.85882551930433 1091.7878300534207 365.76697495323435L1091.7878300534207 365.76697495323435Q1094.6684483501945 360.96594445861115 1099.6561855862756 356.3516207054456Q1104.6439228223562 351.73729695227996 1110.8852624653664 348.66997191404846Q1117.1266021083763 345.6026468758171 1124.0347515423064 345.6026468758171L1124.0347515423064 345.6026468758171Q1129.4225746529391 345.6026468758171 1133.4501057900952 348.4832651725909Q1137.4776369272513 351.36388346936485 1137.4776369272513 357.6852402872854L1137.4776369272513 357.6852402872854Q1137.4776369272513 359.23223900221944 1136.5174308283267 361.44604750807355Q1135.5572247294022 363.65985601392754 1133.4501057900952 365.28687190377207Q1131.3429868507883 366.9138877936166 1127.875575938005 366.9138877936166L1127.875575938005 366.9138877936166Q1123.6613380593913 366.72718105215904 1121.1541332455326 363.55316644738036Q1118.6736008233106 360.3791518426017 1119.2337210476833 356.16491396398806L1119.2337210476833 356.16491396398806Q1114.4326905530602 355.9782072225305 1109.3382637504321 358.64544638621Q1104.270509339441 361.3393579415264 1099.842892327733 366.0603712612391Q1095.415275316025 370.7547121893151 1091.9745367948785 377.10274139887247L1091.9745367948785 377.10274139887247L1092.1612435363359 424.33954698763705Q1092.1612435363359 428.1803713833357 1092.0545539697887 431.1410068550199Q1091.9745367948785 434.128314718341 1091.3877441788688 437.3823464980301L1091.3877441788688 437.3823464980301Q1094.4550692171001 437.1956397565725 1097.4423770804215 437.11562258166214Q1100.4296849437424 437.00893301511496 1103.4970099819739 436.8222262736574L1103.4970099819739 436.8222262736574L1103.4970099819739 444.690581806512L1064.128559926064 444.690581806512ZM1147.2664046579553 444.690581806512L1147.2664046579553 438.9293452129642Q1153.2410203845975 438.9293452129642 1155.5348460653618 435.9420373496431Q1157.8286717461262 432.9814018779588 1158.2287576206782 427.7002683338733Q1158.6021711035933 422.4191347897878 1158.6021711035933 415.51098535585777L1158.6021711035933 415.51098535585777L1158.6021711035933 371.7149182882398Q1158.6021711035933 368.6475932500083 1158.7888778450508 365.84699212814473Q1159.0022569781454 363.0730633979181 1159.3756704610603 359.23223900221944L1159.3756704610603 359.23223900221944Q1155.9082595482769 359.4189457436771 1152.5475382020409 359.60565248513467Q1149.1868168558044 359.819031618229 1145.7460783346578 360.0057383596866L1145.7460783346578 360.0057383596866L1145.7460783346578 351.9240036937375Q1154.201226483522 351.9240036937375 1158.7888778450508 351.1771767279073Q1163.4032015982166 350.40367737044016 1165.803716845528 349.25676453005804Q1168.2042320928394 348.083179298039 1169.5645240663162 346.7495597161992L1169.5645240663162 346.7495597161992L1175.1123815267697 346.7495597161992L1175.1123815267697 424.33954698763705Q1175.1123815267697 428.1803713833357 1175.0323643518593 431.1410068550199Q1174.9256747853121 434.128314718341 1174.3655545609395 437.3823464980301L1174.3655545609395 437.3823464980301Q1177.432879599171 437.1956397565725 1180.3935150708553 437.11562258166214Q1183.3808229341762 437.00893301511496 1186.4481479724077 436.8222262736574L1186.4481479724077 436.8222262736574L1186.4481479724077 444.690581806512L1147.2664046579553 444.690581806512ZM1177.2461728577132 312.95563951237943L1155.7215528068195 333.3066743312544L1150.3604020878236 328.8790573195463L1166.4705266364479 302.9534926485811Q1169.3511449332218 298.7392547699675 1172.0450564885382 298.07244497904765Q1174.7389680438546 297.4056351881277 1176.6593802417037 298.152462153958Q1178.579792439553 298.92596151142504 1178.9532059224682 299.32604738597695L1178.9532059224682 299.32604738597695Q1179.7267052799352 299.88616761034973 1180.6869113788598 301.806579808199Q1181.6471174777846 303.72699200604825 1181.167014428322 306.52759312791176Q1180.6869113788598 309.30152185813847 1177.2461728577132 312.95563951237943L1177.2461728577132 312.95563951237943ZM1287.0830816180369 444.690581806512L1259.6105182321376 444.690581806512Q1259.0503980077647 441.43655002682294 1258.8636912663073 438.9293452129642Q1258.6503121332125 436.4221403991054 1258.2768986502979 433.7549012354259L1258.2768986502979 433.7549012354259Q1251.7421626992827 440.262964794804 1244.1672034744329 444.02377201559216Q1236.565571857946 447.7579068447435 1228.1370961007187 447.7579068447435L1228.1370961007187 447.7579068447435Q1213.5206254837549 447.7579068447435 1206.4257693083673 441.1431537188182Q1199.33091313298 434.5017282012561 1199.33091313298 424.89966721200983L1199.33091313298 424.89966721200983Q1199.33091313298 416.07110558023055 1204.798753418523 409.6430591957628Q1210.266593704066 403.2150128112951 1219.0151381609348 399.08079210759183Q1227.737010226167 394.9465714038886 1238.0058810063333 392.94614203112894Q1248.3014241781361 390.9190402667325 1257.9034851673823 391.10574700818995L1257.9034851673823 391.10574700818995L1257.9034851673823 379.2098603381793Q1257.9034851673823 372.4884176457068 1256.7298999353634 366.5404743107015Q1255.5829870949815 360.56585858405924 1251.7421626992827 356.7250341883607Q1247.9013383035845 352.8842097926622 1239.4461901547202 352.69750305120465L1239.4461901547202 352.69750305120465Q1233.8983326942666 352.5107963097471 1228.0304065341716 354.80462199051146Q1222.162480374077 357.12512006291263 1219.4952412103971 362.69964991500285L1219.4952412103971 362.69964991500285Q1221.0155675336946 364.2199762383002 1221.4956705831569 366.24707800269664Q1221.9757736326192 368.2475073754564 1221.9757736326192 369.981212831848L1221.9757736326192 369.981212831848Q1221.9757736326192 372.30171090424926 1220.05536143477 375.2623463759336Q1218.1349492369204 378.2496542392546 1213.3339187422976 378.06294749779704L1213.3339187422976 378.06294749779704Q1209.3063876051415 378.06294749779704 1207.1992686658346 375.2623463759336Q1205.0921497265276 372.4884176457068 1205.0921497265276 368.6475932500083L1205.0921497265276 368.6475932500083Q1205.0921497265276 362.1128572989934 1209.973197396061 356.9384133214551Q1214.8809174572316 351.73729695227996 1223.5227723475532 348.66997191404846Q1232.1646272378748 345.6026468758171 1243.1003078089611 345.6026468758171L1243.1003078089611 345.6026468758171Q1259.2371047492225 345.6026468758171 1266.9187535406195 354.1378121995915Q1274.6004023320165 362.69964991500285 1274.4136955905587 381.13027253602854L1274.4136955905587 381.13027253602854Q1274.4136955905587 388.2251287114161 1274.4136955905587 395.42667445335087Q1274.4136955905587 402.6282201952856 1274.3070060240116 409.8297659372204Q1274.2269888491014 417.0313116791551 1274.2269888491014 424.33954698763705L1274.2269888491014 424.33954698763705Q1274.2269888491014 427.40687202586855 1274.013609716007 430.47419706410005Q1273.8269029745493 433.54152210233156 1273.4534894916342 437.3823464980301L1273.4534894916342 437.3823464980301Q1276.8942280127808 437.1956397565725 1280.2549493590172 437.00893301511496Q1283.6156707052533 436.8222262736574 1287.0830816180369 436.63551953219974L1287.0830816180369 436.63551953219974L1287.0830816180369 444.690581806512ZM1257.9034851673823 397.64048295920486L1257.9034851673823 397.64048295920486Q1251.3687492163676 397.8271897006624 1244.1672034744329 399.2674988490494Q1236.9656577324981 400.70780799743636 1230.9110248309457 403.5884262942103Q1224.8563919293929 406.46904459098414 1221.1222571002418 411.19005791069696Q1217.3614498794536 415.884398838773 1217.574829012548 422.60584153124535L1217.574829012548 422.60584153124535Q1217.948242495463 429.70069770663304 1222.2691699406241 433.2747981859636Q1226.5900973857847 436.8222262736574 1232.53804072079 436.8222262736574L1232.53804072079 436.8222262736574Q1240.4063962536447 436.8222262736574 1246.2743224137398 433.8349184103363Q1252.1422485738349 430.87428293865196 1257.9034851673823 425.4864598280193L1257.9034851673823 425.4864598280193Q1257.690106034288 423.3793408887125 1257.690106034288 420.87213607485364Q1257.690106034288 418.3916036526317 1257.690106034288 415.69769209731544L1257.690106034288 415.69769209731544Q1257.690106034288 414.73748599839075 1257.7967956008351 409.53636962921564Q1257.9034851673823 404.3619256516773 1257.9034851673823 397.64048295920486Z " fill="#45b39d" transform="matrix(0.6798318019228512,0,0,0.6798318019228512,0,46.58731985393065)"/></g></svg>